<?xml version="1.0" encoding="UTF-8" standalone="no"?>
<!-- Created with Inkscape (http://www.inkscape.org/) -->

<svg
   xmlns:dc="http://purl.org/dc/elements/1.1/"
   xmlns:cc="http://creativecommons.org/ns#"
   xmlns:rdf="http://www.w3.org/1999/02/22-rdf-syntax-ns#"
   xmlns:svg="http://www.w3.org/2000/svg"
   xmlns="http://www.w3.org/2000/svg"
   xmlns:sodipodi="http://sodipodi.sourceforge.net/DTD/sodipodi-0.dtd"
   xmlns:inkscape="http://www.inkscape.org/namespaces/inkscape"
   width="591.71259"
   height="237.70616"
   id="svg2"
   version="1.1"
   inkscape:version="0.48.5 r10040"
   sodipodi:docname="logo LNCC.svg"
   inkscape:export-filename="/home/natasha/Dropbox/CPG/EAMC/site/figures/logo_lncc2.png"
   inkscape:export-xdpi="90"
   inkscape:export-ydpi="90">
  <defs
     id="defs4" />
  <sodipodi:namedview
     id="base"
     pagecolor="#ffffff"
     bordercolor="#666666"
     borderopacity="1.0"
     inkscape:pageopacity="0.0"
     inkscape:pageshadow="2"
     inkscape:zoom="1.4518935"
     inkscape:cx="258.50731"
     inkscape:cy="268.97585"
     inkscape:document-units="px"
     inkscape:current-layer="layer1"
     showgrid="false"
     inkscape:window-width="1366"
     inkscape:window-height="702"
     inkscape:window-x="0"
     inkscape:window-y="27"
     inkscape:window-maximized="1"
     fit-margin-top="0"
     fit-margin-left="0"
     fit-margin-right="0"
     fit-margin-bottom="0" />
  <metadata
     id="metadata7">
    <rdf:RDF>
      <cc:Work
         rdf:about="">
        <dc:format>image/svg+xml</dc:format>
        <dc:type
           rdf:resource="http://purl.org/dc/dcmitype/StillImage" />
        <dc:title></dc:title>
      </cc:Work>
    </rdf:RDF>
  </metadata>
  <g
     inkscape:label="Layer 1"
     inkscape:groupmode="layer"
     id="layer1"
     transform="translate(-70.76265,-182.02576)">
    <g
       style="fill-rule:evenodd"
       id="g2987"
       transform="matrix(1.25,0,0,1.25,1.3477429,-216.67558)">
      <g
         id="g2989">
        <g
           id="g2991">
          <path
             inkscape:connector-curvature="0"
             style="fill:#000000;stroke:none"
             d="m 433.161,503.324 45.936,0 0,5.802 -45.936,0 0,-5.802 z"
             id="path2993" />
          <path
             inkscape:connector-curvature="0"
             style="fill:#000000;stroke:none"
             d="m 477.163,504.291 3.868,4.352 22.726,-22.727 -3.868,-4.351 -22.726,22.726 z"
             id="path2995" />
          <path
             inkscape:connector-curvature="0"
             style="fill:#000000;stroke:none"
             d="m 481.998,506.225 c 0,1.451 -1.45,2.901 -2.901,2.901 -1.451,0 -2.902,-1.45 -2.902,-2.901 0,-1.451 1.451,-2.901 2.902,-2.901 1.451,0 2.901,1.45 2.901,2.901 z"
             id="path2997" />
          <path
             inkscape:connector-curvature="0"
             style="fill:#000000;stroke:none"
             d="m 504.725,483.499 c 0,1.451 -1.451,2.901 -2.902,2.901 -1.451,0 -2.9,-1.45 -2.9,-2.901 0,-1.451 1.449,-2.902 2.9,-2.902 1.451,0 2.902,1.451 2.902,2.902 z"
             id="path2999" />
          <path
             inkscape:connector-curvature="0"
             style="fill:#000000;stroke:none"
             d="m 436.063,506.225 c 0,1.451 -1.451,2.901 -2.902,2.901 -1.451,0 -2.901,-1.45 -2.901,-2.901 0,-1.451 1.45,-2.901 2.901,-2.901 1.451,0 2.902,1.45 2.902,2.901 z"
             id="path3001" />
          <path
             inkscape:connector-curvature="0"
             style="fill:#000000;stroke:none"
             d="m 458.789,389.209 -5.803,0 0,93.806 5.803,0 0,-93.806 z"
             id="path3003" />
          <path
             inkscape:connector-curvature="0"
             style="fill:#000000;stroke:none"
             d="m 457.821,485.433 -3.868,-4.352 -22.726,23.21 3.868,4.352 22.726,-23.21 z"
             id="path3005" />
          <path
             inkscape:connector-curvature="0"
             style="fill:#000000;stroke:none"
             d="m 458.789,483.015 c 0,1.451 -1.451,2.901 -2.902,2.901 -1.45,0 -2.901,-1.45 -2.901,-2.901 0,-1.45 1.451,-2.901 2.901,-2.901 1.451,0 2.902,1.451 2.902,2.901 z"
             id="path3007" />
          <path
             inkscape:connector-curvature="0"
             style="fill:#000000;stroke:none"
             d="m 430.26,435.628 5.803,0 0,70.597 -5.803,0 0,-70.597 z"
             id="path3009" />
          <path
             inkscape:connector-curvature="0"
             style="fill:#000000;stroke:none"
             d="m 436.063,506.225 c 0,1.451 -1.451,2.901 -2.902,2.901 -1.451,0 -2.901,-1.45 -2.901,-2.901 0,-1.451 1.45,-2.901 2.901,-2.901 1.451,0 2.902,1.45 2.902,2.901 z"
             id="path3011" />
          <path
             inkscape:connector-curvature="0"
             style="fill:#000000;stroke:none"
             d="m 431.227,433.694 3.868,4.353 22.726,-23.211 -3.868,-4.351 -22.726,23.209 z"
             id="path3013" />
          <path
             inkscape:connector-curvature="0"
             style="fill:#000000;stroke:none"
             d="m 436.063,435.628 c 0,1.451 -1.451,2.902 -2.902,2.902 -1.451,0 -2.901,-1.451 -2.901,-2.902 0,-1.451 1.45,-2.9 2.901,-2.9 1.451,0 2.902,1.449 2.902,2.9 z"
             id="path3015" />
          <path
             inkscape:connector-curvature="0"
             style="fill:#000000;stroke:none"
             d="m 458.789,412.419 c 0,1.451 -1.451,2.901 -2.902,2.901 -1.45,0 -2.901,-1.45 -2.901,-2.901 0,-1.451 1.451,-2.902 2.901,-2.902 1.451,0 2.902,1.451 2.902,2.902 z"
             id="path3017" />
          <path
             inkscape:connector-curvature="0"
             style="fill:#000000;stroke:none"
             d="m 458.789,389.209 c 0,1.45 -1.451,2.901 -2.902,2.901 -1.45,0 -2.901,-1.451 -2.901,-2.901 0,-1.45 1.451,-2.901 2.901,-2.901 1.451,0 2.902,1.451 2.902,2.901 z"
             id="path3019" />
          <path
             inkscape:connector-curvature="0"
             style="fill:#000000;stroke:none"
             d="m 408.984,386.791 3.868,4.352 22.243,-22.726 -3.868,-4.352 -22.243,22.726 z"
             id="path3021" />
          <path
             inkscape:connector-curvature="0"
             style="fill:#000000;stroke:none"
             d="m 433.161,363.098 45.936,0 0,5.802 -45.936,0 0,-5.802 z"
             id="path3023" />
          <path
             inkscape:connector-curvature="0"
             style="fill:#000000;stroke:none"
             d="m 436.063,365.999 c 0,1.451 -1.451,2.901 -2.902,2.901 -1.451,0 -2.901,-1.45 -2.901,-2.901 0,-1.451 1.45,-2.901 2.901,-2.901 1.451,0 2.902,1.45 2.902,2.901 z"
             id="path3025" />
          <path
             inkscape:connector-curvature="0"
             style="fill:#000000;stroke:none"
             d="m 476.195,365.999 5.803,0 0,69.629 -5.803,0 0,-69.629 z"
             id="path3027" />
          <path
             inkscape:connector-curvature="0"
             style="fill:#000000;stroke:none"
             d="m 481.998,365.999 c 0,1.451 -1.45,2.901 -2.901,2.901 -1.451,0 -2.902,-1.45 -2.902,-2.901 0,-1.451 1.451,-2.901 2.902,-2.901 1.451,0 2.901,1.45 2.901,2.901 z"
             id="path3029" />
          <path
             inkscape:connector-curvature="0"
             style="fill:#000000;stroke:none"
             d="m 479.097,432.728 46.903,0 0,5.802 -46.903,0 0,-5.802 z"
             id="path3031" />
          <path
             inkscape:connector-curvature="0"
             style="fill:#000000;stroke:none"
             d="m 481.998,435.628 c 0,1.451 -1.45,2.902 -2.901,2.902 -1.451,0 -2.902,-1.451 -2.902,-2.902 0,-1.451 1.451,-2.9 2.902,-2.9 1.451,0 2.901,1.449 2.901,2.9 z"
             id="path3033" />
          <path
             inkscape:connector-curvature="0"
             style="fill:#000000;stroke:none"
             d="m 523.099,388.242 5.803,0 0,47.386 -5.803,0 0,-47.386 z"
             id="path3035" />
          <path
             inkscape:connector-curvature="0"
             style="fill:#000000;stroke:none"
             d="m 528.902,435.628 c 0,1.451 -1.451,2.902 -2.902,2.902 -1.451,0 -2.901,-1.451 -2.901,-2.902 0,-1.451 1.45,-2.9 2.901,-2.9 1.451,0 2.902,1.449 2.902,2.9 z"
             id="path3037" />
          <path
             inkscape:connector-curvature="0"
             style="fill:#000000;stroke:none"
             d="m 479.097,385.34 46.903,0 0,5.803 -46.903,0 0,-5.803 z"
             id="path3039" />
          <path
             inkscape:connector-curvature="0"
             style="fill:#000000;stroke:none"
             d="m 528.902,388.242 c 0,1.451 -1.451,2.901 -2.902,2.901 -1.451,0 -2.901,-1.45 -2.901,-2.901 0,-1.451 1.45,-2.902 2.901,-2.902 1.451,0 2.902,1.451 2.902,2.902 z"
             id="path3041" />
          <path
             inkscape:connector-curvature="0"
             style="fill:#000000;stroke:none"
             d="m 481.998,388.242 c 0,1.451 -1.45,2.901 -2.901,2.901 -1.451,0 -2.902,-1.45 -2.902,-2.901 0,-1.451 1.451,-2.902 2.902,-2.902 1.451,0 2.901,1.451 2.901,2.902 z"
             id="path3043" />
          <path
             inkscape:connector-curvature="0"
             style="fill:#000000;stroke:none"
             d="m 413.82,388.725 c 0,1.451 -1.451,2.902 -2.902,2.902 -1.451,0 -2.901,-1.451 -2.901,-2.902 0,-1.451 1.45,-2.901 2.901,-2.901 1.451,0 2.902,1.45 2.902,2.901 z"
             id="path3045" />
          <path
             inkscape:connector-curvature="0"
             style="fill:#000000;stroke:none"
             d="m 410.918,385.824 44.486,0 0,5.803 -44.486,0 0,-5.803 z"
             id="path3047" />
          <path
             inkscape:connector-curvature="0"
             style="fill:#000000;stroke:none"
             d="m 408.017,388.725 5.803,0 0,21.76 -5.803,0 0,-21.76 z"
             id="path3049" />
          <path
             inkscape:connector-curvature="0"
             style="fill:#000000;stroke:none"
             d="m 413.82,388.725 c 0,1.451 -1.451,2.902 -2.902,2.902 -1.451,0 -2.901,-1.451 -2.901,-2.902 0,-1.451 1.45,-2.901 2.901,-2.901 1.451,0 2.902,1.45 2.902,2.901 z"
             id="path3051" />
          <path
             inkscape:connector-curvature="0"
             style="fill:#000000;stroke:none"
             d="m 412.852,412.419 -4.351,-3.868 -24.177,25.143 4.351,3.868 24.177,-25.143 z"
             id="path3053" />
          <path
             inkscape:connector-curvature="0"
             style="fill:#000000;stroke:none"
             d="m 413.82,410.485 c 0,1.451 -1.451,2.9 -2.902,2.9 -1.451,0 -2.901,-1.449 -2.901,-2.9 0,-1.451 1.45,-2.902 2.901,-2.902 1.451,0 2.902,1.451 2.902,2.902 z"
             id="path3055" />
          <path
             inkscape:connector-curvature="0"
             style="fill:#000000;stroke:none"
             d="m 383.841,435.628 5.802,0 0,47.387 -5.802,0 0,-47.387 z"
             id="path3057" />
          <path
             inkscape:connector-curvature="0"
             style="fill:#000000;stroke:none"
             d="m 389.643,435.628 c 0,1.451 -1.451,2.902 -2.902,2.902 -1.451,0 -2.9,-1.451 -2.9,-2.902 0,-1.451 1.449,-2.9 2.9,-2.9 1.451,0 2.902,1.449 2.902,2.9 z"
             id="path3059" />
          <path
             inkscape:connector-curvature="0"
             style="fill:#000000;stroke:none"
             d="m 386.741,480.114 46.42,0 0,5.802 -46.42,0 0,-5.802 z"
             id="path3061" />
          <path
             inkscape:connector-curvature="0"
             style="fill:#000000;stroke:none"
             d="m 389.643,483.015 c 0,1.451 -1.451,2.901 -2.902,2.901 -1.451,0 -2.9,-1.45 -2.9,-2.901 0,-1.45 1.449,-2.901 2.9,-2.901 1.451,0 2.902,1.451 2.902,2.901 z"
             id="path3063" />
          <path
             inkscape:connector-curvature="0"
             style="fill:#000000;stroke:none"
             d="m 436.063,483.015 c 0,1.451 -1.451,2.901 -2.902,2.901 -1.451,0 -2.901,-1.45 -2.901,-2.901 0,-1.45 1.45,-2.901 2.901,-2.901 1.451,0 2.902,1.451 2.902,2.901 z"
             id="path3065" />
          <path
             inkscape:connector-curvature="0"
             style="fill:#000000;stroke:none"
             d="m 458.305,388.725 c 0,1.451 -1.451,2.902 -2.901,2.902 -1.451,0 -2.901,-1.451 -2.901,-2.902 0,-1.451 1.45,-2.901 2.901,-2.901 1.45,0 2.901,1.45 2.901,2.901 z"
             id="path3067" />
          <path
             inkscape:connector-curvature="0"
             style="fill:#000000;stroke:none"
             d="m 498.923,435.628 5.802,0 0,47.871 -5.802,0 0,-47.871 z"
             id="path3069" />
          <path
             inkscape:connector-curvature="0"
             style="fill:#000000;stroke:none"
             d="m 456.371,480.597 45.452,0 0,5.803 -45.452,0 0,-5.803 z"
             id="path3071" />
          <path
             inkscape:connector-curvature="0"
             style="fill:#000000;stroke:none"
             d="m 504.725,483.499 c 0,1.451 -1.451,2.901 -2.902,2.901 -1.451,0 -2.9,-1.45 -2.9,-2.901 0,-1.451 1.449,-2.902 2.9,-2.902 1.451,0 2.902,1.451 2.902,2.902 z"
             id="path3073" />
          <path
             inkscape:connector-curvature="0"
             style="fill:#000000;stroke:none"
             d="m 459.272,483.499 c 0,1.451 -1.451,2.901 -2.901,2.901 -1.451,0 -2.902,-1.45 -2.902,-2.901 0,-1.451 1.451,-2.902 2.902,-2.902 1.45,0 2.901,1.451 2.901,2.902 z"
             id="path3075" />
          <path
             inkscape:connector-curvature="0"
             style="fill:#000000;stroke:none"
             d="m 504.725,435.628 c 0,1.451 -1.451,2.902 -2.902,2.902 -1.451,0 -2.9,-1.451 -2.9,-2.902 0,-1.451 1.449,-2.9 2.9,-2.9 1.451,0 2.902,1.449 2.902,2.9 z"
             id="path3077" />
          <path
             inkscape:connector-curvature="0"
             style="fill:#000000;stroke:none"
             d="m 386.741,432.728 46.903,0 0,5.802 -46.903,0 0,-5.802 z"
             id="path3079" />
          <path
             inkscape:connector-curvature="0"
             style="fill:#000000;stroke:none"
             d="m 389.643,435.628 c 0,1.451 -1.451,2.902 -2.902,2.902 -1.451,0 -2.9,-1.451 -2.9,-2.902 0,-1.451 1.449,-2.9 2.9,-2.9 1.451,0 2.902,1.449 2.902,2.9 z"
             id="path3081" />
          <path
             inkscape:connector-curvature="0"
             style="fill:#000000;stroke:none"
             d="m 436.546,435.628 c 0,1.451 -1.451,2.902 -2.902,2.902 -1.45,0 -2.901,-1.451 -2.901,-2.902 0,-1.451 1.451,-2.9 2.901,-2.9 1.451,0 2.902,1.449 2.902,2.9 z"
             id="path3083" />
          <path
             inkscape:connector-curvature="0"
             style="fill:#000000;stroke:none"
             d="m 408.017,410.485 5.803,0 0,24.177 -5.803,0 0,-24.177 z"
             id="path3085" />
          <path
             inkscape:connector-curvature="0"
             style="fill:#000000;stroke:none"
             d="m 413.82,434.662 c 0,1.451 -1.451,2.9 -2.902,2.9 -1.451,0 -2.901,-1.449 -2.901,-2.9 0,-1.451 1.45,-2.902 2.901,-2.902 1.451,0 2.902,1.451 2.902,2.902 z"
             id="path3087" />
          <path
             inkscape:connector-curvature="0"
             style="fill:#000000;stroke:none"
             d="m 413.82,410.485 c 0,1.451 -1.451,2.9 -2.902,2.9 -1.451,0 -2.901,-1.449 -2.901,-2.9 0,-1.451 1.45,-2.902 2.901,-2.902 1.451,0 2.902,1.451 2.902,2.902 z"
             id="path3089" />
          <path
             inkscape:connector-curvature="0"
             style="fill:#000000;stroke:none"
             d="m 454.437,386.791 3.868,4.352 22.726,-22.726 -3.868,-4.352 -22.726,22.726 z"
             id="path3091" />
          <path
             inkscape:connector-curvature="0"
             style="fill:#000000;stroke:none"
             d="m 481.998,365.999 c 0,1.451 -1.45,2.901 -2.901,2.901 -1.451,0 -2.902,-1.45 -2.902,-2.901 0,-1.451 1.451,-2.901 2.902,-2.901 1.451,0 2.901,1.45 2.901,2.901 z"
             id="path3093" />
          <path
             inkscape:connector-curvature="0"
             style="fill:#000000;stroke:none"
             d="m 459.272,388.725 c 0,1.451 -1.451,2.902 -2.901,2.902 -1.451,0 -2.902,-1.451 -2.902,-2.902 0,-1.451 1.451,-2.901 2.902,-2.901 1.45,0 2.901,1.45 2.901,2.901 z"
             id="path3095" />
          <path
             inkscape:connector-curvature="0"
             style="fill:#000000;stroke:none"
             d="m 431.227,366.483 5.802,0 0,22.242 -5.802,0 0,-22.242 z"
             id="path3097" />
          <path
             inkscape:connector-curvature="0"
             style="fill:#000000;stroke:none"
             d="m 437.029,388.725 c 0,1.451 -1.451,2.902 -2.901,2.902 -1.45,0 -2.901,-1.451 -2.901,-2.902 0,-1.451 1.451,-2.901 2.901,-2.901 1.45,0 2.901,1.45 2.901,2.901 z"
             id="path3099" />
          <path
             inkscape:connector-curvature="0"
             style="fill:#000000;stroke:none"
             d="m 437.029,366.483 c 0,1.45 -1.451,2.901 -2.901,2.901 -1.45,0 -2.901,-1.451 -2.901,-2.901 0,-1.451 1.451,-2.901 2.901,-2.901 1.45,0 2.901,1.45 2.901,2.901 z"
             id="path3101" />
          <path
             inkscape:connector-curvature="0"
             style="fill:#000000;stroke:none"
             d="m 475.712,506.225 5.803,0 0,-22.726 -5.803,0 0,22.726 z"
             id="path3103" />
          <path
             inkscape:connector-curvature="0"
             style="fill:#000000;stroke:none"
             d="m 481.515,483.499 c 0,1.451 -1.451,2.901 -2.901,2.901 -1.451,0 -2.902,-1.45 -2.902,-2.901 0,-1.451 1.451,-2.902 2.902,-2.902 1.45,0 2.901,1.451 2.901,2.902 z"
             id="path3105" />
          <path
             inkscape:connector-curvature="0"
             style="fill:#000000;stroke:none"
             d="m 481.515,506.225 c 0,1.451 -1.451,2.901 -2.901,2.901 -1.451,0 -2.902,-1.45 -2.902,-2.901 0,-1.451 1.451,-2.901 2.902,-2.901 1.45,0 2.901,1.45 2.901,2.901 z"
             id="path3107" />
          <path
             inkscape:connector-curvature="0"
             style="fill:#000000;stroke:none"
             d="m 527.451,437.562 -4.352,-3.868 -23.693,24.177 4.351,3.868 23.694,-24.177 z"
             id="path3109" />
          <path
             inkscape:connector-curvature="0"
             style="fill:#000000;stroke:none"
             d="m 504.725,459.805 c 0,1.451 -1.451,2.902 -2.902,2.902 -1.451,0 -2.9,-1.451 -2.9,-2.902 0,-1.45 1.449,-2.901 2.9,-2.901 1.451,0 2.902,1.451 2.902,2.901 z"
             id="path3111" />
          <path
             inkscape:connector-curvature="0"
             style="fill:#000000;stroke:none"
             d="m 528.417,435.628 c 0,1.451 -1.449,2.902 -2.9,2.902 -1.451,0 -2.902,-1.451 -2.902,-2.902 0,-1.451 1.451,-2.9 2.902,-2.9 1.451,0 2.9,1.449 2.9,2.9 z"
             id="path3113" />
          <path
             inkscape:connector-curvature="0"
             style="fill:#000000;stroke:none"
             d="m 481.031,437.562 -4.351,-3.868 -23.211,23.694 4.352,3.868 23.21,-23.694 z"
             id="path3115" />
          <path
             inkscape:connector-curvature="0"
             style="fill:#000000;stroke:none"
             d="m 458.789,459.322 c 0,1.451 -1.451,2.902 -2.902,2.902 -1.45,0 -2.901,-1.451 -2.901,-2.902 0,-1.451 1.451,-2.902 2.901,-2.902 1.451,0 2.902,1.451 2.902,2.902 z"
             id="path3117" />
          <path
             inkscape:connector-curvature="0"
             style="fill:#000000;stroke:none"
             d="m 481.998,435.628 c 0,1.451 -1.45,2.902 -2.901,2.902 -1.451,0 -2.902,-1.451 -2.902,-2.902 0,-1.451 1.451,-2.9 2.902,-2.9 1.451,0 2.901,1.449 2.901,2.9 z"
             id="path3119" />
          <path
             inkscape:connector-curvature="0"
             style="fill:#000000;stroke:none"
             d="m 67.7987,434.251 9.1972,0 0,39.521 13.3865,0 0,8.76 -22.5837,0 0,-48.281 z"
             id="path3121" />
          <path
             inkscape:connector-curvature="0"
             style="fill:#000000;stroke:none"
             d="m 125.374,434.251 8.794,0 20.711,31.769 0,-31.769 9.186,0 0,48.281 -8.828,0 -20.677,-31.668 0,31.668 -9.186,0 0,-48.281 z"
             id="path3123" />
          <path
             inkscape:connector-curvature="0"
             style="fill:#000000;stroke:none"
             d="m 241.274,442.754 -6.43,6.139 c -4.38,-4.616 -9.298,-6.924 -14.764,-6.924 -4.626,0 -8.513,1.58 -11.672,4.728 -3.16,3.148 -4.739,7.035 -4.739,11.65 0,3.214 0.695,6.071 2.094,8.559 1.401,2.497 3.384,4.457 5.937,5.88 2.566,1.423 5.412,2.129 8.537,2.129 2.666,0 5.107,-0.493 7.325,-1.49 2.207,-0.997 4.639,-2.801 7.282,-5.433 l 6.24,6.497 c -3.574,3.483 -6.946,5.892 -10.116,7.237 -3.17,1.344 -6.788,2.016 -10.866,2.016 -7.494,0 -13.644,-2.375 -18.427,-7.136 -4.772,-4.76 -7.169,-10.854 -7.169,-18.293 0,-4.817 1.086,-9.096 3.271,-12.837 2.173,-3.741 5.287,-6.744 9.354,-9.018 4.054,-2.273 8.423,-3.416 13.106,-3.416 3.988,0 7.819,0.84 11.504,2.531 3.686,1.681 6.867,4.078 9.533,7.181 z"
             id="path3125" />
          <path
             inkscape:connector-curvature="0"
             style="fill:#000000;stroke:none"
             d="m 319.125,442.754 -6.431,6.139 c -4.38,-4.616 -9.298,-6.924 -14.764,-6.924 -4.626,0 -8.513,1.58 -11.672,4.728 -3.16,3.148 -4.739,7.035 -4.739,11.65 0,3.214 0.695,6.071 2.094,8.559 1.401,2.497 3.384,4.457 5.938,5.88 2.565,1.423 5.411,2.129 8.536,2.129 2.666,0 5.108,-0.493 7.326,-1.49 2.207,-0.997 4.638,-2.801 7.281,-5.433 l 6.24,6.497 c -3.574,3.483 -6.945,5.892 -10.116,7.237 -3.17,1.344 -6.788,2.016 -10.866,2.016 -7.494,0 -13.644,-2.375 -18.427,-7.136 -4.772,-4.76 -7.169,-10.854 -7.169,-18.293 0,-4.817 1.086,-9.096 3.271,-12.837 2.173,-3.741 5.287,-6.744 9.354,-9.018 4.055,-2.273 8.424,-3.416 13.106,-3.416 3.988,0 7.819,0.84 11.504,2.531 3.686,1.681 6.867,4.078 9.534,7.181 z"
             id="path3127" />
          <path
             inkscape:connector-curvature="0"
             style="fill:none;stroke:#000000;stroke-width:1.44975996"
             d="m 108.223,423.54 0,74.465"
             id="path3129" />
          <path
             inkscape:connector-curvature="0"
             style="fill:#000000;stroke:none"
             d="m 87.2911,352.944 -4.4808,0 0,-11.882 -3.2633,7.67 -3.0694,0 -3.2645,-7.67 0,11.882 -4.2364,0 0,-17.928 5.1865,0 3.9745,8.849 3.9614,-8.849 5.192,0 0,17.928 z"
             id="path3131" />
          <path
             inkscape:connector-curvature="0"
             style="fill:#000000;stroke:none"
             d="m 96.1607,352.944 -4.2124,0 0,-13.522 4.2124,0 0,13.522 z m 0.1238,-15.45 -4.4556,0 0,-3.287 4.4556,0 0,3.287 z"
             id="path3133" />
          <path
             inkscape:connector-curvature="0"
             style="fill:#000000;stroke:none"
             d="m 114.287,352.944 -4.238,0 0,-6.708 c 0,-0.542 -0.021,-1.089 -0.066,-1.631 -0.046,-0.538 -0.128,-0.942 -0.246,-1.197 -0.145,-0.303 -0.354,-0.522 -0.629,-0.657 -0.272,-0.132 -0.638,-0.198 -1.094,-0.198 -0.345,0 -0.695,0.066 -1.047,0.194 -0.354,0.127 -0.732,0.332 -1.136,0.612 l 0,9.585 -4.212,0 0,-13.522 4.212,0 0,1.492 c 0.692,-0.584 1.366,-1.044 2.019,-1.373 0.653,-0.329 1.376,-0.493 2.174,-0.493 1.381,0 2.437,0.436 3.165,1.307 0.732,0.871 1.098,2.133 1.098,3.785 l 0,8.804 z"
             id="path3135" />
          <path
             inkscape:connector-curvature="0"
             style="fill:#000000;stroke:none"
             d="m 122.755,352.944 -4.212,0 0,-13.522 4.212,0 0,13.522 z m 0.124,-15.45 -4.456,0 0,-3.287 4.456,0 0,3.287 z"
             id="path3137" />
          <path
             inkscape:connector-curvature="0"
             style="fill:#000000;stroke:none"
             d="m 131.848,353.318 c -0.998,0 -1.939,-0.107 -2.824,-0.325 -0.887,-0.218 -1.618,-0.469 -2.198,-0.76 l 0,-3.564 0.35,0 c 0.2,0.152 0.427,0.321 0.686,0.506 0.255,0.184 0.612,0.378 1.072,0.579 0.391,0.185 0.834,0.342 1.327,0.478 0.495,0.131 1.033,0.197 1.608,0.197 0.596,0 1.118,-0.091 1.574,-0.276 0.452,-0.184 0.678,-0.481 0.678,-0.879 0,-0.317 -0.102,-0.551 -0.312,-0.711 -0.21,-0.16 -0.613,-0.317 -1.217,-0.46 -0.321,-0.079 -0.727,-0.165 -1.216,-0.26 -0.489,-0.09 -0.921,-0.197 -1.299,-0.316 -1.06,-0.328 -1.854,-0.818 -2.387,-1.464 -0.535,-0.648 -0.803,-1.496 -0.803,-2.548 0,-0.6 0.141,-1.171 0.416,-1.706 0.275,-0.529 0.682,-1.006 1.22,-1.425 0.539,-0.407 1.205,-0.736 1.994,-0.975 0.789,-0.242 1.681,-0.361 2.676,-0.361 0.949,0 1.82,0.094 2.613,0.284 0.794,0.188 1.463,0.415 2.01,0.678 l 0,3.419 -0.336,0 c -0.145,-0.111 -0.375,-0.263 -0.687,-0.452 -0.313,-0.189 -0.616,-0.349 -0.912,-0.485 -0.354,-0.16 -0.749,-0.296 -1.188,-0.399 -0.436,-0.103 -0.884,-0.155 -1.34,-0.155 -0.608,0 -1.127,0.101 -1.545,0.312 -0.424,0.209 -0.634,0.484 -0.634,0.834 0,0.304 0.103,0.542 0.313,0.72 0.209,0.176 0.661,0.348 1.361,0.517 0.361,0.091 0.775,0.176 1.244,0.259 0.469,0.086 0.921,0.201 1.357,0.345 0.97,0.312 1.705,0.773 2.207,1.377 0.501,0.608 0.752,1.414 0.752,2.416 0,0.634 -0.148,1.238 -0.444,1.813 -0.3,0.572 -0.719,1.056 -1.266,1.451 -0.579,0.424 -1.258,0.753 -2.038,0.987 -0.786,0.234 -1.723,0.349 -2.812,0.349 z"
             id="path3139" />
          <path
             inkscape:connector-curvature="0"
             style="fill:#000000;stroke:none"
             d="m 147.411,353.207 c -1.718,0 -2.967,-0.354 -3.749,-1.061 -0.784,-0.707 -1.175,-1.862 -1.175,-3.464 l 0,-6.321 -1.615,0 0,-2.939 1.615,0 0,-3.863 4.213,0 0,3.863 4.06,0 0,2.939 -4.06,0 0,4.788 c 0,0.477 0.004,0.888 0.012,1.241 0.009,0.354 0.074,0.67 0.194,0.95 0.11,0.282 0.312,0.505 0.596,0.669 0.283,0.165 0.698,0.247 1.245,0.247 0.226,0 0.521,-0.049 0.887,-0.144 0.366,-0.098 0.622,-0.185 0.765,-0.267 l 0.361,0 0,2.975 c -0.455,0.12 -0.945,0.215 -1.459,0.284 -0.513,0.07 -1.142,0.103 -1.89,0.103 z"
             id="path3141" />
          <path
             inkscape:connector-curvature="0"
             style="fill:#000000;stroke:none"
             d="m 161.245,353.306 c -2.553,0 -4.509,-0.609 -5.87,-1.829 -1.36,-1.221 -2.042,-2.959 -2.042,-5.216 0,-2.207 0.633,-3.971 1.903,-5.286 1.27,-1.319 3.041,-1.976 5.323,-1.976 2.071,0 3.629,0.558 4.672,1.673 1.044,1.118 1.566,2.716 1.566,4.796 l 0,1.517 -9.239,0 c 0.041,0.624 0.172,1.15 0.399,1.569 0.221,0.424 0.522,0.756 0.891,1.007 0.358,0.251 0.781,0.427 1.262,0.535 0.481,0.111 1.007,0.164 1.578,0.164 0.49,0 0.975,-0.053 1.447,-0.164 0.473,-0.108 0.908,-0.251 1.3,-0.428 0.345,-0.152 0.665,-0.316 0.957,-0.493 0.296,-0.177 0.534,-0.333 0.719,-0.469 l 0.444,0 0,3.482 c -0.345,0.136 -0.662,0.263 -0.946,0.378 -0.282,0.115 -0.678,0.234 -1.174,0.353 -0.457,0.124 -0.93,0.218 -1.415,0.284 -0.485,0.07 -1.076,0.103 -1.775,0.103 z m 1.397,-8.861 c -0.024,-0.892 -0.23,-1.571 -0.62,-2.04 -0.391,-0.464 -0.987,-0.698 -1.789,-0.698 -0.822,0 -1.458,0.247 -1.923,0.736 -0.46,0.488 -0.714,1.159 -0.764,2.002 l 5.096,0 z m 1.858,-11.682 -3.613,4.731 -2.864,0 2.491,-4.731 3.986,0 z"
             id="path3143" />
          <path
             inkscape:connector-curvature="0"
             style="fill:#000000;stroke:none"
             d="m 179.36,343.405 -0.35,0 c -0.16,-0.058 -0.394,-0.099 -0.698,-0.128 -0.305,-0.029 -0.641,-0.041 -1.011,-0.041 -0.444,0 -0.905,0.066 -1.393,0.193 -0.486,0.127 -0.958,0.279 -1.415,0.457 l 0,9.058 -4.212,0 0,-13.522 4.212,0 0,1.936 c 0.194,-0.177 0.461,-0.399 0.802,-0.666 0.341,-0.271 0.653,-0.485 0.933,-0.646 0.304,-0.184 0.662,-0.341 1.065,-0.477 0.406,-0.131 0.789,-0.197 1.15,-0.197 0.136,0 0.292,0.005 0.461,0.013 0.168,0.008 0.32,0.02 0.456,0.037 l 0,3.983 z"
             id="path3145" />
          <path
             inkscape:connector-curvature="0"
             style="fill:#000000;stroke:none"
             d="m 187.065,352.944 -4.212,0 0,-13.522 4.212,0 0,13.522 z m 0.124,-15.45 -4.455,0 0,-3.287 4.455,0 0,3.287 z"
             id="path3147" />
          <path
             inkscape:connector-curvature="0"
             style="fill:#000000;stroke:none"
             d="m 205.02,346.187 c 0,2.228 -0.608,3.979 -1.825,5.261 -1.217,1.278 -2.935,1.919 -5.158,1.919 -2.212,0 -3.926,-0.641 -5.15,-1.919 -1.225,-1.282 -1.837,-3.033 -1.837,-5.261 0,-2.249 0.612,-4.007 1.837,-5.282 1.224,-1.27 2.938,-1.906 5.15,-1.906 2.215,0 3.934,0.641 5.154,1.919 1.221,1.283 1.829,3.037 1.829,5.269 z m -4.324,0.024 c 0,-0.801 -0.066,-1.47 -0.197,-2.005 -0.136,-0.535 -0.317,-0.962 -0.551,-1.282 -0.247,-0.338 -0.531,-0.571 -0.843,-0.707 -0.312,-0.132 -0.669,-0.197 -1.068,-0.197 -0.378,0 -0.719,0.057 -1.027,0.176 -0.305,0.115 -0.584,0.338 -0.843,0.666 -0.239,0.313 -0.432,0.743 -0.575,1.29 -0.145,0.547 -0.218,1.234 -0.218,2.059 0,0.831 0.07,1.497 0.205,2.01 0.136,0.511 0.312,0.917 0.53,1.221 0.223,0.312 0.506,0.543 0.843,0.687 0.337,0.143 0.711,0.218 1.118,0.218 0.337,0 0.682,-0.075 1.032,-0.218 0.348,-0.144 0.629,-0.362 0.834,-0.65 0.251,-0.345 0.439,-0.761 0.567,-1.249 0.127,-0.486 0.193,-1.16 0.193,-2.019 z"
             id="path3149" />
          <path
             inkscape:connector-curvature="0"
             style="fill:#000000;stroke:none"
             d="m 230.441,352.944 -4.213,0 0,-1.409 c -0.271,0.225 -0.584,0.463 -0.933,0.723 -0.349,0.254 -0.657,0.447 -0.92,0.579 -0.338,0.161 -0.671,0.28 -1,0.362 -0.328,0.078 -0.723,0.119 -1.179,0.119 -1.542,0 -2.762,-0.637 -3.662,-1.916 -0.901,-1.273 -1.348,-2.983 -1.348,-5.116 0,-1.181 0.151,-2.203 0.456,-3.071 0.308,-0.867 0.728,-1.623 1.266,-2.264 0.488,-0.588 1.084,-1.048 1.779,-1.389 0.699,-0.341 1.439,-0.514 2.216,-0.514 0.707,0 1.286,0.074 1.742,0.222 0.453,0.148 0.982,0.378 1.583,0.694 l 0,-5.757 4.213,0 0,18.737 z m -4.213,-3.732 0,-6.633 c -0.21,-0.108 -0.481,-0.193 -0.818,-0.259 -0.337,-0.07 -0.624,-0.103 -0.868,-0.103 -1.01,0 -1.771,0.353 -2.28,1.06 -0.51,0.707 -0.765,1.694 -0.765,2.959 0,1.332 0.202,2.298 0.608,2.89 0.403,0.595 1.061,0.892 1.969,0.892 0.37,0 0.74,-0.074 1.118,-0.218 0.378,-0.145 0.723,-0.342 1.036,-0.588 z"
             id="path3151" />
          <path
             inkscape:connector-curvature="0"
             style="fill:#000000;stroke:none"
             d="m 242.527,349.418 0,-2.82 c -0.716,0.073 -1.294,0.136 -1.735,0.185 -0.444,0.054 -0.875,0.156 -1.303,0.308 -0.369,0.127 -0.653,0.324 -0.859,0.584 -0.205,0.263 -0.308,0.608 -0.308,1.043 0,0.634 0.173,1.069 0.514,1.308 0.341,0.234 0.843,0.354 1.508,0.354 0.37,0 0.748,-0.087 1.135,-0.256 0.386,-0.168 0.736,-0.403 1.048,-0.706 z m 0,2.091 c -0.288,0.243 -0.547,0.461 -0.777,0.654 -0.23,0.189 -0.534,0.382 -0.921,0.575 -0.378,0.185 -0.744,0.325 -1.101,0.424 -0.358,0.094 -0.859,0.144 -1.5,0.144 -1.197,0 -2.191,-0.404 -2.98,-1.205 -0.793,-0.801 -1.187,-1.812 -1.187,-3.033 0,-1.003 0.2,-1.817 0.603,-2.433 0.399,-0.617 0.979,-1.11 1.731,-1.467 0.765,-0.37 1.676,-0.629 2.737,-0.773 1.061,-0.144 2.199,-0.255 3.419,-0.337 l 0,-0.074 c 0,-0.744 -0.275,-1.262 -0.825,-1.546 -0.551,-0.284 -1.378,-0.427 -2.475,-0.427 -0.497,0 -1.081,0.091 -1.746,0.272 -0.666,0.181 -1.32,0.411 -1.953,0.69 l -0.362,0 0,-3.263 c 0.42,-0.12 1.094,-0.263 2.022,-0.428 0.934,-0.164 1.875,-0.246 2.82,-0.246 2.331,0 4.028,0.386 5.092,1.162 1.065,0.773 1.595,1.956 1.595,3.548 l 0,9.198 -4.192,0 0,-1.435 z"
             id="path3153" />
          <path
             inkscape:connector-curvature="0"
             style="fill:#000000;stroke:none"
             d="m 76.7077,377.954 c -2.688,0 -4.826,-0.814 -6.4083,-2.437 -1.5824,-1.629 -2.3714,-3.914 -2.3714,-6.86 0,-2.841 0.7934,-5.106 2.3801,-6.794 1.5868,-1.69 3.7236,-2.536 6.4117,-2.536 0.7144,0 1.3566,0.041 1.9275,0.119 0.5709,0.083 1.1177,0.193 1.6394,0.337 0.4076,0.124 0.8558,0.288 1.3358,0.493 0.481,0.209 0.8711,0.391 1.1681,0.542 l 0,4.275 -0.457,0 c -0.218,-0.193 -0.4931,-0.423 -0.8218,-0.69 -0.3288,-0.272 -0.7025,-0.535 -1.1178,-0.789 -0.4197,-0.26 -0.8799,-0.477 -1.3807,-0.658 -0.5019,-0.18 -1.0235,-0.271 -1.5703,-0.271 -0.6498,0 -1.2459,0.103 -1.7884,0.308 -0.5424,0.206 -1.0596,0.558 -1.5495,1.065 -0.4471,0.456 -0.8174,1.076 -1.1013,1.853 -0.2838,0.781 -0.4273,1.697 -0.4273,2.758 0,1.118 0.1479,2.055 0.4438,2.815 0.3002,0.756 0.6871,1.369 1.1714,1.833 0.4646,0.453 0.983,0.777 1.5583,0.979 0.5753,0.2 1.1462,0.3 1.7171,0.3 0.5929,0 1.1594,-0.1 1.6974,-0.297 0.5392,-0.197 0.9907,-0.414 1.361,-0.653 0.4022,-0.251 0.7561,-0.505 1.0608,-0.76 0.3035,-0.259 0.5709,-0.485 0.7923,-0.686 l 0.412,0 0,4.212 c -0.3298,0.152 -0.7112,0.329 -1.1429,0.526 -0.4362,0.194 -0.88,0.362 -1.3402,0.497 -0.5589,0.169 -1.0849,0.296 -1.578,0.387 -0.4887,0.087 -1.1638,0.132 -2.0218,0.132 z"
             id="path3155" />
          <path
             inkscape:connector-curvature="0"
             style="fill:#000000;stroke:none"
             d="m 90.8416,377.604 -4.2124,0 0,-13.522 4.2124,0 0,13.522 z m 0.1238,-15.45 -4.4556,0 0,-3.287 4.4556,0 0,3.287 z"
             id="path3157" />
          <path
             inkscape:connector-curvature="0"
             style="fill:#000000;stroke:none"
             d="m 102.738,377.966 c -2.552,0 -4.5084,-0.608 -5.8694,-1.829 -1.3599,-1.221 -2.0426,-2.959 -2.0426,-5.216 0,-2.207 0.6334,-3.97 1.9034,-5.285 1.2701,-1.32 3.0409,-1.977 5.3226,-1.977 2.071,0 3.629,0.559 4.672,1.673 1.045,1.118 1.566,2.717 1.566,4.797 l 0,1.516 -9.2386,0 c 0.0406,0.625 0.1721,1.151 0.3989,1.569 0.2214,0.424 0.5216,0.756 0.8907,1.007 0.359,0.251 0.782,0.428 1.263,0.535 0.481,0.111 1.007,0.165 1.578,0.165 0.489,0 0.974,-0.054 1.446,-0.165 0.473,-0.107 0.908,-0.251 1.3,-0.427 0.345,-0.153 0.665,-0.317 0.957,-0.493 0.296,-0.178 0.534,-0.333 0.719,-0.469 l 0.444,0 0,3.481 c -0.345,0.136 -0.662,0.263 -0.946,0.378 -0.282,0.115 -0.678,0.235 -1.174,0.353 -0.457,0.124 -0.93,0.218 -1.415,0.284 -0.484,0.07 -1.076,0.103 -1.775,0.103 z m 1.397,-8.861 c -0.024,-0.892 -0.23,-1.57 -0.62,-2.039 -0.39,-0.465 -0.987,-0.698 -1.789,-0.698 -0.822,0 -1.458,0.246 -1.9228,0.735 -0.4603,0.489 -0.7145,1.159 -0.7638,2.002 l 5.0956,0 z m 2.849,-6.951 -3.12,0 -1.985,-2.564 -1.9772,2.564 -3.0705,0 3.6257,-4.73 2.901,0 3.626,4.73 z"
             id="path3159" />
          <path
             inkscape:connector-curvature="0"
             style="fill:#000000;stroke:none"
             d="m 124.925,377.604 -4.238,0 0,-6.707 c 0,-0.543 -0.021,-1.09 -0.065,-1.632 -0.046,-0.538 -0.129,-0.941 -0.247,-1.197 -0.145,-0.303 -0.354,-0.521 -0.629,-0.657 -0.272,-0.132 -0.638,-0.197 -1.094,-0.197 -0.345,0 -0.694,0.065 -1.047,0.194 -0.354,0.127 -0.732,0.332 -1.136,0.611 l 0,9.585 -4.212,0 0,-13.522 4.212,0 0,1.492 c 0.692,-0.584 1.366,-1.044 2.019,-1.373 0.653,-0.329 1.376,-0.493 2.174,-0.493 1.381,0 2.437,0.436 3.165,1.307 0.732,0.872 1.098,2.133 1.098,3.785 l 0,8.804 z"
             id="path3161" />
          <path
             inkscape:connector-curvature="0"
             style="fill:#000000;stroke:none"
             d="m 136.298,377.966 c -1.119,0 -2.142,-0.139 -3.066,-0.423 -0.929,-0.28 -1.73,-0.711 -2.417,-1.299 -0.674,-0.588 -1.2,-1.323 -1.574,-2.211 -0.378,-0.884 -0.567,-1.932 -0.567,-3.136 0,-1.291 0.206,-2.392 0.612,-3.301 0.411,-0.904 0.966,-1.652 1.665,-2.24 0.674,-0.559 1.467,-0.974 2.375,-1.245 0.913,-0.267 1.862,-0.403 2.848,-0.403 0.749,0 1.493,0.087 2.24,0.259 0.749,0.173 1.496,0.448 2.253,0.826 l 0,3.613 -0.543,0 c -0.168,-0.16 -0.374,-0.338 -0.62,-0.531 -0.243,-0.192 -0.51,-0.369 -0.798,-0.53 -0.308,-0.168 -0.653,-0.312 -1.036,-0.427 -0.385,-0.12 -0.817,-0.177 -1.29,-0.177 -1.077,0 -1.907,0.374 -2.499,1.127 -0.587,0.752 -0.883,1.759 -0.883,3.029 0,1.356 0.316,2.371 0.944,3.037 0.629,0.665 1.468,0.999 2.512,0.999 0.53,0 0.995,-0.062 1.397,-0.181 0.399,-0.12 0.744,-0.268 1.032,-0.436 0.284,-0.168 0.522,-0.341 0.724,-0.522 0.201,-0.181 0.373,-0.345 0.517,-0.489 l 0.543,0 0,3.613 c -0.243,0.102 -0.518,0.226 -0.839,0.362 -0.316,0.135 -0.637,0.25 -0.965,0.336 -0.411,0.112 -0.794,0.197 -1.151,0.26 -0.357,0.061 -0.831,0.09 -1.414,0.09 z"
             id="path3163" />
          <path
             inkscape:connector-curvature="0"
             style="fill:#000000;stroke:none"
             d="m 148.383,377.604 -4.212,0 0,-13.522 4.212,0 0,13.522 z m 0.124,-15.45 -4.456,0 0,-3.287 4.456,0 0,3.287 z"
             id="path3165" />
          <path
             inkscape:connector-curvature="0"
             style="fill:#000000;stroke:none"
             d="m 160.808,374.078 0,-2.82 c -0.715,0.074 -1.294,0.136 -1.734,0.186 -0.444,0.053 -0.876,0.155 -1.303,0.307 -0.369,0.128 -0.653,0.325 -0.859,0.585 -0.205,0.262 -0.308,0.608 -0.308,1.043 0,0.633 0.173,1.068 0.514,1.307 0.341,0.235 0.842,0.354 1.508,0.354 0.37,0 0.748,-0.087 1.135,-0.255 0.386,-0.169 0.735,-0.404 1.047,-0.707 z m 0,2.092 c -0.288,0.242 -0.546,0.46 -0.776,0.653 -0.231,0.189 -0.534,0.382 -0.921,0.575 -0.378,0.185 -0.744,0.326 -1.101,0.424 -0.359,0.095 -0.859,0.144 -1.5,0.144 -1.197,0 -2.191,-0.403 -2.98,-1.204 -0.793,-0.802 -1.188,-1.813 -1.188,-3.034 0,-1.002 0.201,-1.817 0.604,-2.432 0.399,-0.617 0.979,-1.111 1.73,-1.468 0.765,-0.37 1.677,-0.629 2.738,-0.772 1.06,-0.145 2.199,-0.256 3.419,-0.338 l 0,-0.073 c 0,-0.744 -0.275,-1.263 -0.826,-1.546 -0.551,-0.284 -1.377,-0.428 -2.474,-0.428 -0.497,0 -1.082,0.091 -1.747,0.272 -0.666,0.181 -1.319,0.411 -1.952,0.69 l -0.362,0 0,-3.263 c 0.42,-0.119 1.094,-0.263 2.022,-0.427 0.933,-0.165 1.875,-0.247 2.819,-0.247 2.331,0 4.029,0.386 5.093,1.163 1.065,0.772 1.595,1.956 1.595,3.547 l 0,9.198 -4.193,0 0,-1.434 z"
             id="path3167" />
          <path
             inkscape:connector-curvature="0"
             style="fill:#000000;stroke:none"
             d="m 185.906,377.966 c -2.552,0 -4.508,-0.608 -5.869,-1.829 -1.36,-1.221 -2.043,-2.959 -2.043,-5.216 0,-2.207 0.634,-3.97 1.904,-5.285 1.27,-1.32 3.041,-1.977 5.322,-1.977 2.071,0 3.629,0.559 4.673,1.673 1.044,1.118 1.565,2.717 1.565,4.797 l 0,1.516 -9.238,0 c 0.04,0.625 0.172,1.151 0.399,1.569 0.221,0.424 0.521,0.756 0.89,1.007 0.359,0.251 0.782,0.428 1.263,0.535 0.481,0.111 1.007,0.165 1.578,0.165 0.49,0 0.974,-0.054 1.446,-0.165 0.474,-0.107 0.909,-0.251 1.3,-0.427 0.345,-0.153 0.665,-0.317 0.958,-0.493 0.296,-0.178 0.533,-0.333 0.719,-0.469 l 0.443,0 0,3.481 c -0.345,0.136 -0.662,0.263 -0.945,0.378 -0.283,0.115 -0.679,0.235 -1.175,0.353 -0.457,0.124 -0.929,0.218 -1.415,0.284 -0.484,0.07 -1.076,0.103 -1.775,0.103 z m 1.397,-8.861 c -0.024,-0.892 -0.23,-1.57 -0.62,-2.039 -0.39,-0.465 -0.986,-0.698 -1.788,-0.698 -0.822,0 -1.459,0.246 -1.924,0.735 -0.46,0.489 -0.714,1.159 -0.763,2.002 l 5.095,0 z"
             id="path3169" />
          <path
             inkscape:connector-curvature="0"
             style="fill:#000000;stroke:none"
             d="m 207.811,377.604 0,-14.508 -5.298,0 0,-3.419 15.1,0 0,3.419 -5.298,0 0,14.508 -4.504,0 z"
             id="path3171" />
          <path
             inkscape:connector-curvature="0"
             style="fill:#000000;stroke:none"
             d="m 227.49,377.966 c -2.552,0 -4.508,-0.608 -5.869,-1.829 -1.36,-1.221 -2.043,-2.959 -2.043,-5.216 0,-2.207 0.634,-3.97 1.904,-5.285 1.27,-1.32 3.041,-1.977 5.322,-1.977 2.071,0 3.629,0.559 4.673,1.673 1.044,1.118 1.566,2.717 1.566,4.797 l 0,1.516 -9.239,0 c 0.04,0.625 0.172,1.151 0.399,1.569 0.221,0.424 0.521,0.756 0.891,1.007 0.358,0.251 0.781,0.428 1.262,0.535 0.481,0.111 1.007,0.165 1.578,0.165 0.49,0 0.974,-0.054 1.446,-0.165 0.474,-0.107 0.909,-0.251 1.3,-0.427 0.345,-0.153 0.665,-0.317 0.958,-0.493 0.296,-0.178 0.533,-0.333 0.719,-0.469 l 0.443,0 0,3.481 c -0.345,0.136 -0.661,0.263 -0.945,0.378 -0.283,0.115 -0.679,0.235 -1.175,0.353 -0.457,0.124 -0.929,0.218 -1.415,0.284 -0.484,0.07 -1.076,0.103 -1.775,0.103 z m 1.397,-8.861 c -0.024,-0.892 -0.23,-1.57 -0.62,-2.039 -0.39,-0.465 -0.986,-0.698 -1.788,-0.698 -0.822,0 -1.459,0.246 -1.924,0.735 -0.46,0.489 -0.714,1.159 -0.763,2.002 l 5.095,0 z"
             id="path3173" />
          <path
             inkscape:connector-curvature="0"
             style="fill:#000000;stroke:none"
             d="m 243.644,377.966 c -1.119,0 -2.143,-0.139 -3.067,-0.423 -0.929,-0.28 -1.73,-0.711 -2.417,-1.299 -0.674,-0.588 -1.2,-1.323 -1.574,-2.211 -0.378,-0.884 -0.567,-1.932 -0.567,-3.136 0,-1.291 0.206,-2.392 0.612,-3.301 0.411,-0.904 0.966,-1.652 1.665,-2.24 0.674,-0.559 1.467,-0.974 2.376,-1.245 0.913,-0.267 1.861,-0.403 2.848,-0.403 0.748,0 1.492,0.087 2.24,0.259 0.748,0.173 1.495,0.448 2.253,0.826 l 0,3.613 -0.544,0 c -0.168,-0.16 -0.374,-0.338 -0.62,-0.531 -0.242,-0.192 -0.51,-0.369 -0.798,-0.53 -0.308,-0.168 -0.653,-0.312 -1.035,-0.427 -0.386,-0.12 -0.818,-0.177 -1.29,-0.177 -1.077,0 -1.908,0.374 -2.5,1.127 -0.587,0.752 -0.883,1.759 -0.883,3.029 0,1.356 0.317,2.371 0.945,3.037 0.629,0.665 1.467,0.999 2.511,0.999 0.531,0 0.995,-0.062 1.397,-0.181 0.399,-0.12 0.744,-0.268 1.033,-0.436 0.283,-0.168 0.521,-0.341 0.723,-0.522 0.201,-0.181 0.373,-0.345 0.517,-0.489 l 0.544,0 0,3.613 c -0.244,0.102 -0.519,0.226 -0.84,0.362 -0.315,0.135 -0.637,0.25 -0.965,0.336 -0.411,0.112 -0.794,0.197 -1.151,0.26 -0.357,0.061 -0.83,0.09 -1.413,0.09 z"
             id="path3175" />
          <path
             inkscape:connector-curvature="0"
             style="fill:#000000;stroke:none"
             d="m 264.184,377.604 -4.238,0 0,-6.707 c 0,-0.543 -0.021,-1.09 -0.066,-1.632 -0.046,-0.538 -0.128,-0.941 -0.246,-1.197 -0.145,-0.303 -0.354,-0.521 -0.629,-0.657 -0.272,-0.132 -0.638,-0.197 -1.094,-0.197 -0.345,0 -0.695,0.065 -1.048,0.194 -0.353,0.127 -0.732,0.332 -1.135,0.611 l 0,9.585 -4.212,0 0,-13.522 4.212,0 0,1.492 c 0.692,-0.584 1.366,-1.044 2.019,-1.373 0.653,-0.329 1.376,-0.493 2.174,-0.493 1.381,0 2.437,0.436 3.165,1.307 0.732,0.872 1.098,2.133 1.098,3.785 l 0,8.804 z"
             id="path3177" />
          <path
             inkscape:connector-curvature="0"
             style="fill:#000000;stroke:none"
             d="m 281.903,370.847 c 0,2.228 -0.608,3.979 -1.826,5.261 -1.216,1.278 -2.934,1.919 -5.158,1.919 -2.211,0 -3.925,-0.641 -5.149,-1.919 -1.225,-1.282 -1.838,-3.033 -1.838,-5.261 0,-2.248 0.613,-4.007 1.838,-5.281 1.224,-1.27 2.938,-1.907 5.149,-1.907 2.216,0 3.934,0.641 5.155,1.92 1.221,1.282 1.829,3.036 1.829,5.268 z m -4.324,0.024 c 0,-0.801 -0.066,-1.47 -0.197,-2.005 -0.136,-0.535 -0.317,-0.962 -0.552,-1.282 -0.246,-0.337 -0.53,-0.571 -0.842,-0.707 -0.313,-0.131 -0.67,-0.197 -1.069,-0.197 -0.378,0 -0.719,0.057 -1.027,0.176 -0.304,0.115 -0.584,0.338 -0.842,0.667 -0.239,0.312 -0.432,0.743 -0.575,1.289 -0.145,0.547 -0.219,1.234 -0.219,2.059 0,0.831 0.071,1.497 0.205,2.01 0.136,0.511 0.313,0.917 0.531,1.221 0.222,0.312 0.506,0.543 0.842,0.687 0.338,0.144 0.712,0.218 1.118,0.218 0.338,0 0.683,-0.074 1.032,-0.218 0.349,-0.144 0.629,-0.362 0.834,-0.65 0.251,-0.345 0.44,-0.76 0.568,-1.249 0.127,-0.485 0.193,-1.159 0.193,-2.019 z"
             id="path3179" />
          <path
             inkscape:connector-curvature="0"
             style="fill:#000000;stroke:none"
             d="m 290.059,377.604 -4.212,0 0,-18.737 4.212,0 0,18.737 z"
             id="path3181" />
          <path
             inkscape:connector-curvature="0"
             style="fill:#000000;stroke:none"
             d="m 308.014,370.847 c 0,2.228 -0.608,3.979 -1.826,5.261 -1.216,1.278 -2.934,1.919 -5.158,1.919 -2.211,0 -3.925,-0.641 -5.149,-1.919 -1.225,-1.282 -1.838,-3.033 -1.838,-5.261 0,-2.248 0.613,-4.007 1.838,-5.281 1.224,-1.27 2.938,-1.907 5.149,-1.907 2.216,0 3.934,0.641 5.155,1.92 1.221,1.282 1.829,3.036 1.829,5.268 z m -4.324,0.024 c 0,-0.801 -0.066,-1.47 -0.197,-2.005 -0.136,-0.535 -0.317,-0.962 -0.551,-1.282 -0.247,-0.337 -0.531,-0.571 -0.843,-0.707 -0.312,-0.131 -0.67,-0.197 -1.069,-0.197 -0.378,0 -0.718,0.057 -1.026,0.176 -0.305,0.115 -0.584,0.338 -0.843,0.667 -0.239,0.312 -0.432,0.743 -0.575,1.289 -0.145,0.547 -0.218,1.234 -0.218,2.059 0,0.831 0.07,1.497 0.205,2.01 0.135,0.511 0.312,0.917 0.53,1.221 0.222,0.312 0.506,0.543 0.843,0.687 0.337,0.144 0.711,0.218 1.117,0.218 0.338,0 0.683,-0.074 1.033,-0.218 0.348,-0.144 0.629,-0.362 0.833,-0.65 0.251,-0.345 0.44,-0.76 0.568,-1.249 0.127,-0.485 0.193,-1.159 0.193,-2.019 z"
             id="path3183" />
          <path
             inkscape:connector-curvature="0"
             style="fill:#000000;stroke:none"
             d="m 320.034,373.338 0,-6.124 c -0.209,-0.095 -0.465,-0.177 -0.768,-0.243 -0.309,-0.061 -0.613,-0.094 -0.917,-0.094 -1.011,0 -1.771,0.329 -2.281,0.982 -0.509,0.654 -0.765,1.566 -0.765,2.737 0,0.584 0.038,1.082 0.116,1.484 0.074,0.407 0.218,0.765 0.427,1.082 0.202,0.303 0.465,0.533 0.789,0.69 0.325,0.156 0.74,0.234 1.246,0.234 0.378,0 0.747,-0.066 1.113,-0.193 0.366,-0.127 0.711,-0.313 1.04,-0.555 z m 4.214,2.712 c 0,1.254 -0.182,2.315 -0.544,3.19 -0.362,0.876 -0.855,1.557 -1.479,2.047 -0.625,0.497 -1.377,0.858 -2.252,1.076 -0.876,0.223 -1.846,0.333 -2.914,0.333 -0.896,0 -1.751,-0.057 -2.557,-0.172 -0.805,-0.119 -1.509,-0.255 -2.1,-0.407 l 0,-3.383 0.493,0 c 0.209,0.082 0.456,0.169 0.74,0.263 0.288,0.099 0.572,0.185 0.863,0.267 0.345,0.087 0.683,0.161 1.011,0.218 0.329,0.054 0.666,0.083 1.011,0.083 0.715,0 1.312,-0.074 1.788,-0.222 0.477,-0.148 0.834,-0.358 1.076,-0.633 0.239,-0.28 0.408,-0.613 0.507,-0.991 0.094,-0.382 0.143,-0.863 0.143,-1.439 l 0,-0.254 c -0.472,0.419 -1.023,0.752 -1.644,1.007 -0.621,0.25 -1.262,0.378 -1.919,0.378 -1.752,0 -3.099,-0.572 -4.053,-1.71 -0.949,-1.138 -1.425,-2.872 -1.425,-5.203 0,-1.057 0.147,-2.01 0.439,-2.853 0.291,-0.842 0.699,-1.561 1.221,-2.153 0.497,-0.572 1.101,-1.011 1.808,-1.319 0.707,-0.308 1.439,-0.465 2.203,-0.465 0.691,0 1.307,0.091 1.854,0.267 0.546,0.177 1.044,0.411 1.492,0.707 l 0.156,-0.6 4.082,0 0,11.968 z"
             id="path3185" />
          <path
             inkscape:connector-curvature="0"
             style="fill:#000000;stroke:none"
             d="m 333.093,377.604 -4.212,0 0,-13.522 4.212,0 0,13.522 z m 0.124,-15.45 -4.456,0 0,-3.287 4.456,0 0,3.287 z"
             id="path3187" />
          <path
             inkscape:connector-curvature="0"
             style="fill:#000000;stroke:none"
             d="m 345.52,374.078 0,-2.82 c -0.716,0.074 -1.295,0.136 -1.735,0.186 -0.444,0.053 -0.876,0.155 -1.303,0.307 -0.369,0.128 -0.653,0.325 -0.859,0.585 -0.205,0.262 -0.308,0.608 -0.308,1.043 0,0.633 0.173,1.068 0.514,1.307 0.341,0.235 0.843,0.354 1.508,0.354 0.37,0 0.748,-0.087 1.135,-0.255 0.386,-0.169 0.735,-0.404 1.048,-0.707 z m 0,2.092 c -0.289,0.242 -0.547,0.46 -0.777,0.653 -0.231,0.189 -0.534,0.382 -0.921,0.575 -0.378,0.185 -0.744,0.326 -1.101,0.424 -0.358,0.095 -0.859,0.144 -1.5,0.144 -1.197,0 -2.191,-0.403 -2.98,-1.204 -0.793,-0.802 -1.188,-1.813 -1.188,-3.034 0,-1.002 0.201,-1.817 0.604,-2.432 0.399,-0.617 0.979,-1.111 1.73,-1.468 0.765,-0.37 1.677,-0.629 2.738,-0.772 1.06,-0.145 2.199,-0.256 3.419,-0.338 l 0,-0.073 c 0,-0.744 -0.275,-1.263 -0.825,-1.546 -0.552,-0.284 -1.378,-0.428 -2.475,-0.428 -0.497,0 -1.081,0.091 -1.747,0.272 -0.666,0.181 -1.319,0.411 -1.952,0.69 l -0.362,0 0,-3.263 c 0.42,-0.119 1.094,-0.263 2.022,-0.427 0.933,-0.165 1.875,-0.247 2.819,-0.247 2.331,0 4.029,0.386 5.093,1.163 1.065,0.772 1.595,1.956 1.595,3.547 l 0,9.198 -4.192,0 0,-1.434 z"
             id="path3189" />
          <path
             inkscape:connector-curvature="0"
             style="fill:none;stroke:#000000;stroke-width:1.44975996"
             d="m 180.754,423.54 0,74.465"
             id="path3191" />
          <path
             inkscape:connector-curvature="0"
             style="fill:none;stroke:#000000;stroke-width:1.44975996"
             d="m 257.153,423.54 0,74.465"
             id="path3193" />
        </g>
      </g>
    </g>
    <rect
       style="fill:#ffffff;fill-opacity:1;stroke:#ffffff;stroke-width:9.81835938;stroke-miterlimit:4;stroke-dasharray:none;stroke-dashoffset:0;stroke-opacity:1"
       id="rect3554"
       width="361.05112"
       height="62.98489"
       x="75.671829"
       y="198.9447" />
    <text
       xml:space="preserve"
       style="font-style:normal;font-variant:normal;font-weight:normal;font-stretch:normal;font-size:40px;line-height:125%;font-family:sans-serif;-inkscape-font-specification:sans-serif;letter-spacing:0px;word-spacing:0px;fill:#000000;fill-opacity:1;stroke:none;stroke-width:1px;stroke-linecap:butt;stroke-linejoin:miter;stroke-opacity:1"
       x="79.114296"
       y="206.0199"
       id="text3546"
       sodipodi:linespacing="125%"><tspan
         sodipodi:role="line"
         id="tspan3548"
         x="79.114296"
         y="206.0199"
         style="font-style:normal;font-variant:normal;font-weight:normal;font-stretch:normal;font-size:30px;font-family:sans-serif;-inkscape-font-specification:sans-serif">Ministério da</tspan><tspan
         sodipodi:role="line"
         x="79.114296"
         y="243.5199"
         style="font-style:normal;font-variant:normal;font-weight:bold;font-stretch:normal;font-size:30px;font-family:sans-serif;-inkscape-font-specification:sans-serif"
         id="tspan3550">Ciência, Tecnologia</tspan><tspan
         sodipodi:role="line"
         x="79.114296"
         y="281.0199"
         style="font-style:normal;font-variant:normal;font-weight:bold;font-stretch:normal;font-size:30px;font-family:sans-serif;-inkscape-font-specification:sans-serif"
         id="tspan3552">e Inovação</tspan></text>
  </g>
</svg>
